 <svg version="1.0" xmlns="http://www.w3.org/2000/svg" width="700.000000pt" height="681.000000pt" viewBox="0 0 700.000000 681.000000" preserveAspectRatio="xMidYMid meet">
<metadata>
Created by potrace 1.12, written by Peter Selinger 2001-2015
</metadata>
<g transform="translate(0.000000,681.000000) scale(0.100000,-0.100000)" fill="#000000" stroke="none">
<path d="M3901 5914 c-54 -14 -113 -57 -141 -100 -8 -13 -18 -24 -22 -24 -11
0 -66 -119 -84 -180 -16 -56 -28 -116 -65 -317 -16 -90 -20 -149 -19 -300 1
-103 -1 -196 -5 -205 -6 -14 -19 -18 -66 -18 -49 0 -60 3 -70 21 -15 28 -38
180 -49 314 -4 61 -15 128 -23 150 -8 22 -20 79 -26 127 -6 47 -18 99 -26 116
-8 16 -19 49 -23 73 -5 24 -19 60 -30 79 -12 19 -22 41 -22 48 0 23 -88 146
-126 176 -38 30 -89 45 -158 46 -47 0 -115 -37 -146 -80 -12 -16 -26 -29 -33
-27 -6 1 -16 -21 -23 -53 -15 -72 -22 -87 -42 -95 -9 -4 -84 -6 -167 -6 -133
1 -154 -1 -187 -19 -21 -11 -42 -20 -48 -20 -13 0 -100 -66 -123 -93 -57 -70
-90 -135 -114 -231 -23 -91 -25 -113 -20 -221 4 -66 13 -156 22 -200 8 -44 15
-94 15 -110 0 -17 11 -51 25 -77 14 -26 25 -56 25 -66 0 -10 11 -29 25 -42 14
-13 25 -28 25 -34 0 -6 20 -33 45 -61 25 -27 45 -59 45 -71 0 -19 -28 -48
-161 -169 -39 -36 -161 -183 -210 -254 -75 -108 -136 -220 -156 -286 -8 -27
-19 -55 -24 -61 -5 -7 -17 -52 -25 -100 -9 -49 -22 -103 -30 -119 -21 -45 -12
-247 15 -344 12 -41 21 -91 21 -110 1 -20 9 -54 20 -76 11 -22 19 -47 20 -55
0 -8 11 -36 25 -62 14 -26 25 -52 25 -58 0 -6 11 -28 25 -50 14 -22 25 -44 25
-49 0 -16 99 -166 165 -249 33 -43 106 -124 163 -182 110 -113 120 -134 82
-183 -11 -14 -20 -33 -20 -44 0 -10 -9 -51 -20 -92 -11 -41 -20 -94 -20 -117
0 -60 -17 -91 -57 -105 -21 -7 -38 -20 -43 -35 -11 -27 -73 -114 -113 -156
-14 -15 -46 -56 -71 -90 -25 -35 -61 -80 -81 -101 -19 -21 -35 -42 -35 -46 0
-4 -21 -29 -46 -54 -36 -36 -45 -52 -42 -74 2 -23 8 -29 35 -31 24 -2 34 2 43
19 11 19 51 74 91 124 8 10 26 30 42 45 15 16 27 31 27 35 0 4 10 19 23 34 12
16 36 45 52 66 17 21 49 59 72 86 23 26 44 57 48 68 3 12 20 28 37 37 30 15
32 15 45 -2 7 -10 13 -21 13 -25 0 -13 57 -93 89 -124 69 -67 79 -75 90 -75 7
0 29 -11 49 -25 20 -14 44 -25 54 -25 10 0 33 -14 53 -31 l35 -31 0 -150 c0
-147 7 -188 34 -188 34 0 41 30 38 161 -2 70 -1 137 3 149 9 28 55 50 106 50
26 0 50 7 61 17 10 9 26 21 36 27 50 30 112 81 112 93 0 7 10 23 22 35 12 12
49 76 82 142 l61 121 50 -5 c28 -3 154 -5 280 -5 127 0 259 2 295 5 l64 5 27
-55 c15 -30 28 -61 28 -68 1 -7 12 -30 26 -50 14 -20 25 -45 25 -55 0 -10 7
-20 15 -23 8 -3 28 -24 43 -45 44 -59 152 -131 215 -143 19 -4 40 -12 45 -19
6 -7 12 -75 13 -152 3 -147 9 -175 37 -175 43 1 46 11 43 167 -2 133 0 150 16
165 23 20 98 58 116 58 7 0 28 11 47 25 19 14 40 25 47 25 14 0 133 110 133
123 0 5 11 22 25 39 14 16 25 38 25 48 0 29 38 110 54 116 10 4 35 -16 73 -57
32 -35 85 -88 117 -119 74 -69 214 -209 316 -317 43 -46 86 -83 95 -83 25 0
55 19 55 36 0 8 -111 124 -246 257 -136 133 -267 263 -293 288 -25 25 -60 53
-76 61 -38 20 -59 45 -73 84 -13 40 -2 59 29 49 19 -6 216 -175 239 -205 3 -4
50 -47 105 -96 96 -86 197 -181 365 -344 117 -113 169 -160 178 -160 13 0 55
47 51 58 -2 5 -36 36 -75 70 -39 33 -103 91 -142 129 -39 37 -105 100 -148
138 -43 39 -101 93 -130 120 -50 48 -142 132 -269 247 -33 30 -81 76 -107 103
-46 47 -47 48 -72 32 -24 -16 -25 -15 -55 18 -34 39 -49 95 -33 129 5 13 27
31 49 41 21 10 46 26 55 35 9 10 36 32 60 49 24 17 59 51 78 76 19 25 56 72
83 104 26 33 47 64 47 70 0 7 9 29 20 49 30 56 76 180 89 241 6 30 16 60 21
66 12 15 30 218 30 350 0 155 -18 311 -40 356 -11 21 -20 50 -20 64 0 14 -11
47 -25 73 -14 26 -25 53 -25 60 0 7 -11 30 -25 50 -14 20 -25 44 -25 53 0 9
-9 24 -20 34 -11 10 -22 26 -26 37 -3 10 -16 30 -30 45 -13 14 -24 30 -24 36
0 5 -9 19 -20 31 -12 12 -42 46 -68 76 -25 30 -97 105 -159 165 -71 69 -113
118 -113 131 0 11 21 44 46 74 64 75 178 244 216 320 7 14 31 59 53 100 48 90
76 157 115 270 46 135 55 216 34 317 -6 32 -51 81 -95 103 -39 21 -133 28
-143 11 -3 -5 -25 -18 -48 -29 -45 -21 -150 -106 -157 -126 -2 -6 -13 -18 -24
-28 -18 -14 -19 -20 -9 -42 14 -31 28 -33 42 -5 18 33 86 96 112 104 12 4 32
14 43 21 11 8 36 14 56 14 134 0 106 -245 -66 -577 -41 -79 -90 -167 -109
-197 -20 -29 -36 -56 -36 -59 0 -13 -91 -126 -121 -151 -37 -32 -38 -32 -80
-2 -19 14 -52 34 -74 44 -22 11 -53 31 -69 45 l-30 24 12 179 c17 246 15 465
-4 612 -11 82 -13 127 -6 134 20 20 54 -14 87 -85 37 -83 55 -172 55 -279 0
-41 3 -77 6 -81 10 -10 68 56 88 100 10 24 29 49 42 58 33 22 39 50 15 83 -11
16 -31 59 -45 96 -44 117 -92 173 -188 222 -37 19 -76 34 -87 34 -22 0 -81 52
-81 72 0 23 -98 116 -133 126 -61 19 -102 21 -156 6z m-834 -116 c31 -29 64
-71 75 -93 10 -22 25 -51 33 -65 8 -14 15 -35 15 -48 0 -12 7 -33 15 -46 9
-13 22 -54 29 -92 8 -38 19 -82 25 -98 6 -16 18 -83 26 -150 8 -66 21 -152 30
-191 8 -38 15 -118 15 -176 0 -141 -4 -137 173 -141 77 -1 141 2 146 7 5 6 11
147 14 315 4 233 9 320 21 370 9 36 20 93 25 126 6 40 26 95 57 160 43 86 56
103 103 136 91 64 165 49 244 -47 43 -53 68 -127 93 -275 35 -213 36 -572 2
-781 -15 -92 -6 -131 35 -152 63 -32 253 -160 321 -215 152 -124 406 -396 406
-435 0 -6 8 -20 19 -31 38 -43 118 -218 151 -331 36 -120 50 -221 50 -347 0
-73 -5 -151 -10 -173 -5 -22 -17 -85 -26 -140 -9 -55 -25 -119 -35 -142 -10
-23 -19 -50 -19 -60 0 -10 -11 -36 -25 -58 -13 -22 -25 -46 -25 -54 0 -16 -83
-143 -115 -178 -57 -61 -131 -133 -136 -133 -3 0 -23 -13 -44 -30 -25 -20 -49
-30 -71 -30 -29 0 -36 5 -53 38 -11 21 -27 44 -35 51 -9 8 -16 19 -16 25 0 7
-11 23 -25 36 -14 13 -25 28 -25 35 0 6 -9 18 -19 27 -43 36 -70 101 -77 183
-12 137 -65 240 -162 313 -36 27 -127 31 -172 7 -17 -9 -65 -20 -107 -25 -55
-7 -82 -15 -90 -28 -7 -9 -18 -23 -25 -31 -24 -29 -65 -128 -72 -176 -4 -28
-15 -65 -24 -84 -13 -29 -16 -76 -16 -280 -1 -167 3 -252 10 -266 19 -33 40
-204 27 -223 -17 -28 -289 -55 -418 -42 -222 23 -214 18 -195 128 7 42 15 95
17 117 3 22 9 44 14 50 5 5 9 105 9 222 0 183 -3 221 -19 270 -11 32 -22 80
-25 106 -7 62 -55 164 -94 200 -24 23 -44 30 -101 38 -39 4 -83 15 -98 22 -41
21 -143 28 -150 10 -3 -8 -20 -21 -37 -30 -35 -18 -95 -81 -96 -102 0 -7 -11
-35 -25 -63 -20 -39 -25 -65 -25 -121 0 -84 -17 -124 -88 -212 -27 -33 -52
-70 -56 -81 -4 -12 -15 -29 -26 -39 -11 -10 -20 -22 -20 -27 0 -16 -52 -78
-66 -78 -7 0 -46 35 -87 78 -147 153 -186 200 -226 273 -11 19 -27 41 -35 48
-9 8 -16 20 -16 28 0 8 -11 31 -25 51 -14 20 -25 43 -25 50 0 7 -11 30 -25 50
-14 20 -25 46 -25 57 0 11 -7 30 -15 42 -8 12 -22 49 -31 83 -8 33 -22 76 -29
95 -11 25 -15 87 -16 242 0 194 6 257 29 286 5 7 12 32 16 56 4 24 13 56 21
70 8 14 23 46 34 71 11 25 25 52 30 60 5 8 14 26 20 40 6 14 24 43 39 66 15
22 37 56 49 74 44 67 218 250 290 305 14 11 35 30 47 41 12 12 46 36 76 54 30
18 62 39 70 46 22 18 153 84 168 84 7 0 40 13 73 30 33 16 66 29 72 27 8 -1
13 15 15 45 2 36 -2 53 -17 69 -29 32 -35 107 -33 475 0 275 3 341 17 387 9
31 21 59 26 62 5 4 9 20 9 36 0 42 46 128 89 166 28 25 45 32 79 33 39 0 49
-6 99 -52z m-449 -218 l64 -22 -7 -47 c-3 -25 -7 -109 -9 -186 -2 -77 -7 -148
-11 -157 -10 -26 -34 -22 -47 8 -8 17 -31 34 -65 50 l-53 23 -38 -21 c-57 -33
-72 -48 -100 -108 -66 -140 1 -304 135 -329 44 -9 51 -7 83 17 19 14 42 34 52
44 21 21 44 23 54 6 13 -21 17 -197 5 -212 -7 -8 -72 -44 -146 -80 -73 -36
-136 -70 -140 -76 -3 -5 -19 -10 -35 -10 -22 0 -39 12 -75 53 -91 102 -132
229 -146 452 -19 316 32 479 175 552 65 34 195 74 221 68 11 -2 48 -14 83 -25z
m-89 -431 c18 -6 37 -21 42 -33 5 -11 16 -32 24 -46 27 -47 17 -102 -33 -185
-41 -67 -138 -22 -152 72 -13 80 2 143 41 175 38 32 36 32 78 17z m307 -2324
c3 -8 -6 -29 -20 -46 -14 -17 -26 -35 -26 -40 0 -5 -9 -9 -19 -9 -16 0 -21 -9
-26 -43 -10 -63 -4 -92 19 -92 10 0 24 9 30 20 6 11 22 34 36 52 14 17 39 51
57 75 17 24 48 52 67 62 l36 19 38 -26 c23 -15 44 -39 51 -59 7 -18 21 -56 32
-84 12 -32 21 -85 24 -145 2 -52 7 -116 11 -144 7 -65 -13 -410 -28 -455 -6
-19 -19 -68 -29 -110 -22 -93 -56 -190 -75 -211 -8 -8 -14 -23 -14 -31 0 -9
-16 -35 -35 -58 -19 -23 -35 -46 -35 -50 0 -4 -23 -27 -51 -51 -89 -75 -221
-83 -351 -21 -124 58 -182 111 -229 207 -21 44 -24 63 -24 166 1 101 4 120 23
153 12 20 22 47 22 60 0 60 169 343 269 451 20 21 30 61 57 215 24 140 72 210
144 210 27 0 43 -5 46 -15z m1422 -1 c46 -32 71 -88 92 -210 24 -139 39 -194
56 -201 13 -5 99 -117 130 -170 63 -105 82 -141 89 -163 4 -14 16 -37 26 -52
11 -14 19 -37 19 -50 0 -13 6 -32 13 -43 24 -34 37 -110 37 -207 0 -81 -3
-100 -27 -148 -33 -64 -131 -167 -170 -176 -16 -4 -39 -15 -53 -26 -30 -21
-118 -42 -180 -42 -86 1 -127 20 -206 99 -40 40 -76 86 -80 101 -4 15 -18 43
-31 62 -12 19 -23 45 -23 58 0 13 -10 42 -21 64 -12 22 -24 66 -28 98 -4 31
-13 67 -19 79 -22 41 -34 232 -30 469 4 193 8 237 22 265 10 19 24 54 32 79
15 51 55 95 95 105 21 5 34 -1 70 -37 47 -45 105 -126 120 -166 8 -20 14 -23
37 -17 15 3 31 11 36 16 12 11 -32 97 -81 157 -20 24 -32 49 -29 57 7 20 75
19 104 -1z"></path>
<path d="M2936 5658 c-16 -14 -31 -44 -39 -78 -8 -29 -19 -56 -26 -58 -8 -3
-11 -85 -11 -298 0 -281 1 -295 20 -314 17 -17 20 -33 20 -125 0 -121 9 -134
63 -94 30 22 40 23 150 22 131 -1 136 2 96 66 -18 29 -21 57 -27 221 -6 164
-10 191 -26 209 -15 17 -20 43 -26 133 -6 100 -9 113 -28 126 -17 11 -22 24
-22 57 0 29 -6 47 -19 59 -11 10 -22 28 -25 41 -3 13 -20 31 -38 39 -38 20
-32 20 -62 -6z m78 -86 c14 -21 26 -47 26 -58 0 -11 9 -38 20 -59 12 -22 25
-76 31 -120 6 -44 16 -102 24 -130 18 -64 47 -427 35 -439 -12 -12 -193 -27
-203 -17 -4 4 -10 45 -13 92 -3 46 -13 117 -21 158 -20 96 -13 423 11 520 26
102 47 115 90 53z"></path>
<path d="M4000 5670 c-8 -5 -26 -10 -40 -10 -31 0 -50 -17 -50 -44 0 -11 -9
-29 -19 -40 -15 -16 -21 -42 -26 -111 -6 -70 -11 -93 -26 -105 -16 -13 -19
-37 -25 -195 -3 -99 -6 -199 -5 -223 1 -33 -3 -47 -20 -60 -17 -15 -22 -30
-24 -82 -1 -36 2 -70 7 -77 7 -8 44 -10 134 -6 111 5 126 4 144 -12 13 -11 24
-15 30 -9 7 8 16 209 21 509 3 149 -16 373 -33 392 -8 10 -20 31 -25 47 -10
34 -21 40 -43 26z m22 -89 c33 -58 49 -283 40 -566 -4 -132 -11 -246 -15 -252
-12 -18 -177 -18 -202 0 -16 13 -17 24 -11 118 3 57 10 174 15 260 6 109 14
165 25 187 9 17 21 66 27 109 10 69 34 136 62 171 16 20 39 10 59 -27z"></path>
<path d="M3102 4418 c-16 -16 -15 -33 3 -48 14 -12 75 -114 120 -199 11 -21
27 -46 35 -56 8 -10 29 -43 46 -74 32 -60 68 -78 93 -47 16 19 6 43 -46 109
-13 16 -23 33 -23 39 0 5 -18 38 -41 73 -43 67 -70 113 -89 155 -7 14 -15 32
-20 40 -9 19 -61 25 -78 8z"></path>

</g>
</svg>