<?xml version="1.0" standalone="no"?>
<!DOCTYPE svg PUBLIC "-//W3C//DTD SVG 20010904//EN"
 "http://www.w3.org/TR/2001/REC-SVG-20010904/DTD/svg10.dtd">
<svg version="1.0" xmlns="http://www.w3.org/2000/svg"
 width="255.000000pt" height="248.000000pt" viewBox="0 0 255.000000 248.000000"
 preserveAspectRatio="xMidYMid meet">
<metadata>
Created by potrace 1.15, written by Peter Selinger 2001-2017
</metadata>
<g transform="translate(0.1,248.000000) scale(0.100000,-0.100000)"
fill="#000000" stroke="none">
<path d="M1033 2138 c-17 -13 -34 -35 -37 -50 -5 -27 -8 -28 -65 -28 -74 0
-104 -11 -141 -52 -43 -47 -56 -117 -40 -215 13 -83 29 -124 63 -161 l21 -23
-53 -52 c-143 -140 -204 -300 -170 -444 28 -117 82 -215 171 -309 l48 -51 -15
-36 c-8 -20 -15 -49 -15 -65 0 -27 -15 -52 -32 -52 -4 0 -5 7 -2 15 15 39 -30
6 -129 -93 -95 -96 -123 -132 -100 -132 4 0 54 46 110 102 56 56 105 100 108
97 3 -3 -27 -46 -65 -95 -39 -49 -70 -92 -70 -96 0 -28 38 5 101 87 72 93 89
109 89 81 0 -16 64 -74 108 -98 31 -16 32 -20 32 -78 0 -33 4 -60 10 -60 11 0
13 8 10 66 -1 44 9 57 52 68 35 8 80 54 105 106 l19 42 129 0 129 1 17 -40
c20 -47 82 -111 112 -115 19 -3 23 -11 27 -61 6 -73 24 -74 28 -2 3 54 4 56
45 76 57 29 94 65 108 106 6 18 14 33 17 33 4 0 54 -47 112 -105 58 -58 108
-105 112 -105 26 0 -7 41 -119 150 -69 68 -121 126 -114 128 6 2 33 -16 59
-40 26 -23 94 -87 152 -140 105 -96 122 -108 128 -90 4 14 -317 307 -334 305
-9 0 -20 9 -26 22 -9 20 -3 30 59 91 78 77 107 137 125 254 26 175 -27 322
-168 466 -30 31 -54 59 -54 64 0 4 7 14 16 21 32 26 103 149 133 230 59 153
-14 234 -123 138 l-46 -41 -14 34 c-17 41 -40 63 -87 82 -19 8 -41 26 -48 39
-13 25 -49 47 -77 47 -29 0 -72 -33 -93 -70 -27 -49 -51 -175 -51 -272 0 -76
-1 -78 -25 -78 -28 0 -29 3 -45 127 -21 160 -65 262 -121 282 -41 14 -39 15
-76 -11z m93 -41 c14 -19 33 -51 40 -73 14 -42 42 -203 46 -269 l3 -40 58 -3
57 -3 0 63 c0 82 16 217 31 268 15 48 53 90 84 90 12 0 30 -10 41 -22 43 -49
48 -76 49 -263 l2 -179 64 -43 c124 -83 218 -192 260 -303 61 -160 16 -379
-98 -480 -26 -22 -51 -39 -57 -37 -23 7 -84 108 -90 148 -8 52 -32 93 -62 109
-17 10 -34 9 -76 -1 -62 -16 -72 -26 -94 -99 -15 -51 -16 -149 -2 -280 3 -24
-1 -25 -63 -34 -36 -5 -87 -6 -113 -2 l-48 8 8 46 c11 58 10 226 -1 267 -15
56 -40 81 -98 95 -48 11 -57 11 -81 -5 -30 -20 -56 -73 -56 -113 0 -20 -48
-103 -87 -152 -5 -6 -68 61 -106 113 -16 21 -43 68 -60 105 -30 63 -32 74 -32
182 0 110 1 118 33 184 51 102 152 204 258 258 80 41 102 66 74 83 -15 9 -12
282 3 325 18 54 45 90 67 90 10 0 31 -15 46 -33z m-161 -142 c0 -65 -7 -89
-18 -61 -11 29 -49 26 -78 -6 -39 -41 -39 -85 0 -127 34 -36 51 -39 77 -10
l19 21 7 -33 c8 -42 8 -43 -50 -70 -26 -12 -50 -27 -55 -33 -10 -14 -55 40
-63 74 -3 14 -10 35 -15 48 -18 45 -11 154 14 202 18 37 30 47 71 61 77 26 91
16 91 -66z m631 30 c7 -19 14 -54 14 -79 0 -25 4 -48 10 -51 5 -3 21 13 35 35
44 70 113 128 135 115 37 -23 -34 -226 -113 -326 -26 -33 -43 -35 -75 -11 -23
17 -23 23 -25 185 -1 92 -1 167 1 167 2 0 10 -16 18 -35z m-566 -964 c0 -5 -7
-14 -15 -21 -16 -13 -21 -50 -6 -50 5 0 21 16 35 35 61 80 98 23 98 -150 0
-212 -59 -345 -154 -345 -49 0 -110 31 -137 69 -43 60 -19 164 68 289 24 34
42 75 46 102 4 24 12 52 19 62 11 18 46 25 46 9z m513 -71 c14 0 7 28 -14 54
-20 25 -20 26 -1 26 28 0 49 -29 56 -80 4 -29 21 -68 47 -105 113 -167 117
-280 10 -335 -89 -45 -150 -18 -197 87 -57 127 -54 376 4 421 15 12 21 8 52
-27 20 -23 39 -41 43 -41z"/>
<path d="M1074 2062 c-26 -17 -34 -55 -34 -159 1 -96 11 -188 21 -197 2 -2 27
0 54 3 l50 6 -2 80 c-5 149 -53 292 -89 267z"/>
<path d="M1426 2048 c-19 -30 -33 -91 -47 -217 -13 -119 -12 -121 63 -121 l47
0 7 57 c9 74 -1 254 -15 282 -15 27 -37 27 -55 -1z"/>
<path d="M1218 1338 c-41 -34 -40 -86 4 -119 l21 -16 -28 -57 c-25 -51 -28
-68 -28 -156 0 -98 11 -147 41 -182 84 -99 144 251 61 357 l-21 25 32 36 c25
29 30 42 25 63 -14 55 -68 79 -107 49z"/>
<path d="M1977 1975 c-28 -14 -69 -57 -62 -64 2 -2 16 6 31 18 34 26 59 27
109 0 50 -26 75 -54 75 -85 0 -32 -20 -39 -65 -24 -30 10 -40 9 -60 -4 -29
-19 -33 -52 -7 -60 27 -9 72 -52 72 -70 0 -21 -50 -22 -91 0 -24 12 -34 13
-45 3 -25 -20 -15 -45 27 -68 55 -31 70 -65 42 -93 -27 -26 -53 -20 -122 27
-52 36 -73 28 -28 -11 64 -58 134 -76 185 -50 48 25 52 56 14 127 -1 4 11 9
27 12 63 13 65 80 4 121 l-37 25 58 -1 c47 -1 61 2 72 17 33 45 2 118 -68 158
-58 34 -97 40 -131 22z"/>
<path d="M428 1909 c-10 -5 -18 -20 -18 -31 0 -17 3 -19 12 -10 17 17 24 15
46 -8 25 -27 57 -91 80 -160 l19 -55 72 -3 c79 -3 94 -15 68 -55 -16 -24 -88
-64 -134 -73 -24 -5 -36 0 -66 29 -41 38 -46 36 -18 -7 39 -59 87 -69 175 -35
93 34 134 111 86 159 -15 15 -33 20 -76 20 -54 0 -55 1 -70 38 -48 117 -81
169 -121 191 -26 13 -33 13 -55 0z"/>
<path d="M2125 1485 c-85 -42 -151 -80 -153 -89 -5 -21 0 -20 58 9 67 34 76
32 49 -12 l-23 -38 37 33 c66 57 106 37 85 -42 -7 -25 -16 -46 -20 -46 -4 0
-8 -7 -8 -15 0 -9 -6 -26 -14 -38 -13 -20 -20 -53 -17 -84 2 -22 38 -14 68 13
18 16 22 24 11 20 -25 -8 -23 10 8 69 19 36 27 67 28 110 1 58 0 60 -33 76
-38 18 -39 17 43 59 48 24 72 51 44 49 -7 0 -80 -34 -163 -74z"/>
<path d="M220 1526 c0 -8 18 -21 40 -30 22 -9 40 -18 40 -20 0 -2 -20 -16 -45
-30 -25 -15 -45 -31 -45 -36 0 -14 2 -13 57 14 53 26 123 38 144 26 10 -7 10
-15 0 -48 -12 -35 -11 -47 14 -128 32 -102 40 -117 68 -130 36 -16 44 -40 22
-65 -39 -43 -148 -75 -158 -46 -2 6 -8 8 -13 4 -13 -13 10 -41 42 -50 36 -11
126 21 167 58 40 38 38 86 -8 120 -27 21 -39 43 -60 107 -32 98 -28 128 15
128 35 0 39 15 8 31 -13 7 -31 23 -41 36 -15 18 -28 23 -67 23 -44 0 -84 12
-142 41 -25 13 -38 11 -38 -5z"/>
<path d="M2309 1387 c-9 -7 -21 -22 -28 -34 -10 -19 -9 -22 4 -17 8 4 15 10
15 15 0 5 14 9 30 9 46 0 42 -30 -22 -170 -47 -104 -103 -150 -182 -150 -37 0
-57 6 -83 26 -38 29 -47 10 -10 -22 50 -44 127 -57 190 -30 49 20 118 105 156
192 43 98 50 148 26 174 -20 23 -71 26 -96 7z"/>
<path d="M598 954 c-3 -3 -106 -44 -229 -92 -204 -80 -265 -112 -210 -112 12
0 40 9 64 20 23 10 112 47 197 80 203 80 210 83 210 97 0 13 -22 18 -32 7z"/>
<path d="M1890 856 c0 -12 383 -246 417 -254 7 -2 13 3 13 11 0 8 -64 51 -142
97 -310 180 -288 169 -288 146z"/>
<path d="M655 699 c-56 -45 -46 -38 -219 -169 -69 -52 -126 -101 -126 -107 0
-28 -2 -29 265 175 39 30 91 70 118 89 26 19 47 39 47 44 0 20 -38 6 -85 -32z"/>
<path d="M100 111 c0 -7 -10 -11 -22 -9 -33 4 -35 -33 -4 -68 l24 -29 1149 -3
c1156 -2 1203 -1 1203 32 0 13 -31 34 -74 49 -22 8 -367 13 -1126 18 -602 3
-1107 9 -1122 14 -19 5 -28 4 -28 -4z"/>
</g>
</svg>
